inDegrees=no
num_controls=7
num_derivatives=13
num_iterations=123
num_multipliers=7
num_parameters=0
num_slacks=7
num_states=26
objective=0.563135
objective_accelerations=0.007141
objective_balance=0.002839
objective_effort=0.016953
objective_height=0.526885
objective_ligament=0.009318
solver_duration=1279.087550
status=Solve_Succeeded
success=true
DataType=double
version=3
OpenSimVersion=4.5
endheader
time	/jointset/ground_pelvis/pelvis_tilt/value	/jointset/ground_pelvis/pelvis_tx/value	/jointset/ground_pelvis/pelvis_ty/value	/jointset/hip_r/hip_flexion_r/value	/jointset/hip_r/hip_adduction_r/value	/jointset/hip_r/hip_rotation_r/value	/jointset/back/lumbar_extension/value	/jointset/patellofemoral_r/patellar_flexion_r/value	/jointset/knee_r/knee_flexion_r/value	/jointset/knee_r/knee_adduction_r/value	/jointset/knee_r/knee_rotation_r/value	/jointset/ankle_r/ankle_angle_r/value	/jointset/subtalar_r/subtalar_angle_r/value	/jointset/ground_pelvis/pelvis_tilt/speed	/jointset/ground_pelvis/pelvis_tx/speed	/jointset/ground_pelvis/pelvis_ty/speed	/jointset/hip_r/hip_flexion_r/speed	/jointset/hip_r/hip_adduction_r/speed	/jointset/hip_r/hip_rotation_r/speed	/jointset/back/lumbar_extension/speed	/jointset/patellofemoral_r/patellar_flexion_r/speed	/jointset/knee_r/knee_flexion_r/speed	/jointset/knee_r/knee_adduction_r/speed	/jointset/knee_r/knee_rotation_r/speed	/jointset/ankle_r/ankle_angle_r/speed	/jointset/subtalar_r/subtalar_angle_r/speed	/forceset/tau_hip_flexion_r	/forceset/tau_hip_adduction_r	/forceset/tau_hip_rotation_r	/forceset/tau_knee_flexion_r	/forceset/tau_ankle_angle_r	/forceset/tau_subtalar_angle_r	/forceset/tau_lumbar_extension	lambda_cid13_p0	lambda_cid14_p0	lambda_cid14_p1	lambda_cid14_p2	lambda_cid14_p3	lambda_cid14_p4	lambda_cid14_p5	/jointset/ground_pelvis/pelvis_tilt/accel	/jointset/ground_pelvis/pelvis_tx/accel	/jointset/ground_pelvis/pelvis_ty/accel	/jointset/hip_r/hip_flexion_r/accel	/jointset/hip_r/hip_adduction_r/accel	/jointset/hip_r/hip_rotation_r/accel	/jointset/back/lumbar_extension/accel	/jointset/patellofemoral_r/patellar_flexion_r/accel	/jointset/knee_r/knee_flexion_r/accel	/jointset/knee_r/knee_adduction_r/accel	/jointset/knee_r/knee_rotation_r/accel	/jointset/ankle_r/ankle_angle_r/accel	/jointset/subtalar_r/subtalar_angle_r/accel	gamma_cid13_p0	gamma_cid14_p0	gamma_cid14_p1	gamma_cid14_p2	gamma_cid14_p3	gamma_cid14_p4	gamma_cid14_p5
1	0.06097477753318553	0.1000167607220974	0.9353323604469143	0.2303553267195754	-0.2067973210096032	-0.2223126679702828	-0.4205216513900202	0.2922118223859237	0.292211822385941	0.06592920070071571	0.174200775399545	0.1606428238643842	0.0578197123185825	-0.01315858436403907	0.01438740188767601	0.004412988510341056	-0.03097499254038555	0.006037415503935517	-0.01371009977362032	0.05854003932476685	-0.05012169764048034	-0.05012169764048387	-0.001513046468895205	-4.919731370747169e-05	-0.005747175912003102	0.005835442298361915	-0.02954330563093844	-0.002358395947580146	-0.004727618451524699	-0.1775227655053207	-0.00466133904659932	-0.01646032774583481	0.1258811153843855	-42.98595546010695	-46.01090343056529	-8.764301072198375	-5.499471121213488	12.15673050118468	-706.8399372818778	53.51446664128622	-0.3679961397788131	0.0634656249099597	0.07057726589540739	-0.2986181736541899	-0.01944047696783803	-0.1738143672380522	1.661540172668874	-1.074923305133606	-1.074923305133573	0.307154484208656	-0.000428936334403259	-0.493395951207839	-0.1626938519867765	4.598671818794546e-11	-1.831904597708704e-09	-3.355023202195468e-09	-1.933954496649742e-11	1.875261804591214e-09	-5.5863521842967e-09	-2.087508289367312e-09
1.01	0.06082450336879276	0.1001637795798596	0.9353799361607349	0.2300313072188151	-0.2067379601540073	-0.2224585767488995	-0.4198529637157091	0.2916574230254549	0.2916574230254487	0.0659293485691705	0.1742005015271035	0.1605608773125994	0.05786993891788307	-0.01689553088047945	0.01501555605845931	0.005101118016065367	-0.03382657284833202	0.005834558809847433	-0.01547151088992023	0.0751917878544172	-0.06075458874697796	-0.06075458874697436	0.001542852386047949	-5.230874615940113e-06	-0.01064164128742269	0.00420970581704251	-0.0293198683290154	-0.002411769743897239	-0.004748963165015758	-0.177315594987653	-0.00470314422619504	-0.01645682763600165	0.1256094927918668	-42.98404135809189	-46.01540166194459	-8.760645061949356	-5.50339337257319	12.14767077623432	-706.7008796497113	53.52535113762188	-0.376436196776322	0.06236868672889857	0.06777401280726011	-0.2780778156416546	-0.02073807300972595	-0.1772827223601671	1.666136040676166	-1.056934176141567	-1.056934176140548	0.304841903371439	0.006861299170069962	-0.4873980413861136	-0.1625398842641672	9.333769120182666e-11	-1.984830552701863e-09	-3.494217186626007e-09	-6.065021869205281e-10	2.070621288945804e-09	-6.710856992495456e-09	-1.607216929172044e-09
1.02	0.06063688128139689	0.1003170556540428	0.9354343618135923	0.2296788419437158	-0.2066806338268309	-0.222622095286385	-0.419017929786589	0.2909968023213684	0.290996802321339	0.06596006228961088	0.1742006776920952	0.1604300008649253	0.05790390288475832	-0.02062816896490694	0.01563884517187443	0.005782976317642519	-0.03666414740735049	0.005630509820545671	-0.01723205154758614	0.09180929028659267	-0.07136596636282412	-0.07136596636281382	0.004600123930363223	4.081017003516588e-05	-0.01553315508992537	0.002582915813338469	-0.02909643102713357	-0.002465143540218252	-0.004770307878420932	-0.1771084244700074	-0.004744949405797535	-0.01645332752617646	0.12533787019932	-42.98173458726671	-46.02810785102397	-8.757117377318046	-5.508790121847904	12.15584133695812	-706.6875016865707	53.55042494958177	-0.3671344533762328	0.06249261343632095	0.06932302506597625	-0.2958170238685884	-0.01967893601057207	-0.1736402755112467	1.6546909531739	-1.070620607003315	-1.070620607003367	0.307429022083077	-1.401522249400936e-05	-0.4928056366244611	-0.1629045564637021	1.676823087014069e-10	-2.115489983008639e-09	-3.915477824365833e-09	-1.096852865078419e-09	2.30691802529154e-09	-7.816010165235876e-09	-1.490463482461013e-09
1.03	0.06041196640964648	0.1004765372961024	0.9354955710550524	0.2292980730959525	-0.2066253564053661	-0.2228032085172719	-0.4180169308214208	0.2902301965429818	0.290230196542972	0.0660213574367627	0.1742013196400623	0.1602502309076233	0.05792159365418948	-0.02435303753941832	0.01625635682016306	0.006457436910660476	-0.0394867484082923	0.00542464803842049	-0.01898984418738321	0.1083810576965056	-0.08194929863837709	-0.08194929863836994	0.007659009403431244	8.740903676907773e-05	-0.02041956342390025	0.0009552281949524572	-0.0287670406406788	-0.002578715976321628	-0.004797386462529823	-0.1769017142407882	-0.004674582352102165	-0.01646656744096564	0.1249402085105564	-42.97899745350735	-45.99618305352009	-8.753674702880621	-5.513454454971655	12.14114308135708	-706.5128079691141	53.57467530671774	-0.3748977495616166	0.06121198768949392	0.06629052596968658	-0.275050623235701	-0.02108926479922761	-0.1767363250272396	1.657002877345938	-1.051305985293643	-1.051305985294103	0.3051331803860085	0.006971033227271241	-0.4863676469088938	-0.1627031706685425	2.423023715528822e-10	-2.245922203879839e-09	-4.339616693261878e-09	-1.586215666054716e-09	2.54363248869841e-09	-8.920965872308354e-09	-1.377419606295742e-09
